<svg width="16" height="16" viewBox="0 0 16 16" fill="none" xmlns="http://www.w3.org/2000/svg">
<path d="M10.0003 5.00011L4.79402 10.2939C4.62166 10.4841 4.52905 10.7333 4.53537 10.9899C4.54169 11.2465 4.64645 11.4909 4.82796 11.6724C5.00947 11.8539 5.25384 11.9587 5.51046 11.965C5.76708 11.9713 6.0163 11.8787 6.20652 11.7064L12.4128 5.41261C12.7575 5.03216 12.9427 4.53371 12.9301 4.02048C12.9174 3.50724 12.7079 3.01851 12.3449 2.65549C11.9819 2.29247 11.4931 2.08295 10.9799 2.07031C10.4667 2.05767 9.96822 2.24289 9.58777 2.58761L3.38152 8.88136C2.81959 9.44328 2.50391 10.2054 2.50391 11.0001C2.50391 11.7948 2.81959 12.5569 3.38152 13.1189C3.94345 13.6808 4.70559 13.9965 5.50027 13.9965C6.29496 13.9965 7.05709 13.6808 7.61902 13.1189L12.7503 8.00011" stroke="#E7E9EA" stroke-linecap="round" stroke-linejoin="round"/>
</svg>
