<svg width="24" height="24" viewBox="0 0 24 24" fill="none" xmlns="http://www.w3.org/2000/svg">
<path d="M12 16.5C14.4853 16.5 16.5 14.4853 16.5 12C16.5 9.51472 14.4853 7.5 12 7.5C9.51472 7.5 7.5 9.51472 7.5 12C7.5 14.4853 9.51472 16.5 12 16.5Z" stroke="#899194" stroke-linecap="round" stroke-linejoin="round"/>
<path d="M18.5052 7.56523C18.7309 7.88836 18.9285 8.23024 19.0958 8.58711L21.5239 9.93711C21.8271 11.2951 21.8303 12.7028 21.5333 14.0621L19.0958 15.4121C18.9285 15.769 18.7309 16.1109 18.5052 16.434L18.5521 19.2184C17.523 20.1561 16.3051 20.8625 14.9802 21.2902L12.5896 19.8559C12.1963 19.884 11.8016 19.884 11.4083 19.8559L9.02705 21.2809C7.69797 20.861 6.47602 20.1572 5.4458 19.2184L5.49268 16.4434C5.26887 16.1158 5.07138 15.7709 4.90205 15.4121L2.47393 14.0621C2.17074 12.7042 2.16754 11.2964 2.46455 9.93711L4.90205 8.58711C5.06938 8.23024 5.26698 7.88836 5.49268 7.56523L5.4458 4.78086C6.47485 3.84314 7.69279 3.13667 9.01768 2.70898L11.4083 4.14336C11.8016 4.11523 12.1963 4.11523 12.5896 4.14336L14.9708 2.71836C16.2999 3.13826 17.5218 3.842 18.5521 4.78086L18.5052 7.56523Z" stroke="#899194" stroke-linecap="round" stroke-linejoin="round"/>
</svg>
